<svg xmlns="http://www.w3.org/2000/svg" viewBox="0 0 27.012 27.012">
  <path d="M4.488,17.328a13.306,13.306,0,0,1,1.068-5.244,13.633,13.633,0,0,1,2.88-4.308,13.489,13.489,0,0,1,14.8-2.88,13.688,13.688,0,0,1,4.32,2.88A13.647,13.647,0,0,1,31.5,17.328a13.263,13.263,0,0,1-1.068,5.244,13.688,13.688,0,0,1-2.88,4.32,13.231,13.231,0,0,1-4.32,2.88,13.408,13.408,0,0,1-10.488,0,13.633,13.633,0,0,1-4.308-2.88,13.231,13.231,0,0,1-2.88-4.32A13.306,13.306,0,0,1,4.488,17.328Zm1.44,0a11.669,11.669,0,0,0,.84,4.392,12.159,12.159,0,0,0,2.268,3.7,12.377,12.377,0,0,0,3.42,2.628,11.849,11.849,0,0,0,4.224,1.3,10.407,10.407,0,0,1-4.44-4.884,17.98,17.98,0,0,1-1.3-7.116A15.448,15.448,0,0,1,12.528,10.4,12.792,12.792,0,0,1,16.92,5.316,11.763,11.763,0,0,0,12.612,6.54a12.154,12.154,0,0,0-3.5,2.628,12.341,12.341,0,0,0-3.18,8.16Z" transform="translate(-4.488 -3.828)" />
</svg>