<svg viewBox="0 0 800 800" xmlns="http://www.w3.org/2000/svg" fill-rule="evenodd" clip-rule="evenodd" stroke-linejoin="round" stroke-miterlimit="2">
  <path d="M502.89 300.365c0-27.761-63.592-79.965-79.965-79.965h-45.85c-22.719 0-79.965 58.55-79.965 79.965v272.952c0 44.134 35.831 79.965 79.965 79.965h45.85c44.134 0 79.965-35.831 79.965-79.965V300.365z" fill="#ebebeb" />
  <clipPath id="a">
    <path d="M502.89 300.365c0-27.761-63.592-79.965-79.965-79.965h-45.85c-22.719 0-79.965 58.55-79.965 79.965v272.952c0 44.134 35.831 79.965 79.965 79.965h45.85c44.134 0 79.965-35.831 79.965-79.965V300.365z" />
  </clipPath>
  <g clip-path="url(#a)">
    <path d="M502.89 424.745s-8.96-5.361-13.037-5.361c-10.08 0-12.126 10.37-18.474 8.762-6.831-1.73-13.141-10.241-23.136-10.241s-18.876 4.21-29.787 6.84c-10.72 2.583-22.045-5.899-32.815-5.899-10.771 0-21.409 6.814-31.808 5.899-10.398-.916-21.129-11.392-30.583-11.392-9.453 0-26.14 11.392-26.14 11.392v228.537h205.78V424.745z" fill="#91d6f9" />
    <path d="M400 687.963V116.789h196.76l7.292 580.743L400 687.963z" fill-opacity=".03" />
  </g>
  <path d="M429.981 181.311c0-7.191-5.839-13.029-13.03-13.029h-33.902c-7.191 0-13.03 5.838-13.03 13.029v26.06c0 7.191 5.839 13.029 13.03 13.029h33.902c7.191 0 13.03-5.838 13.03-13.029v-26.06z" fill="#009deb" />
</svg>