<svg xmlns="http://www.w3.org/2000/svg" width="17" height="19.429" viewBox="0 0 17 19.429">
  <path id="Icon_awesome-calendar-alt" d="M0,17.607a1.822,1.822,0,0,0,1.821,1.821H15.179A1.822,1.822,0,0,0,17,17.607V7.286H0ZM12.143,10.17a.457.457,0,0,1,.455-.455h1.518a.457.457,0,0,1,.455.455v1.518a.457.457,0,0,1-.455.455H12.6a.457.457,0,0,1-.455-.455Zm0,4.857a.457.457,0,0,1,.455-.455h1.518a.457.457,0,0,1,.455.455v1.518a.457.457,0,0,1-.455.455H12.6a.457.457,0,0,1-.455-.455ZM7.286,10.17a.457.457,0,0,1,.455-.455H9.259a.457.457,0,0,1,.455.455v1.518a.457.457,0,0,1-.455.455H7.741a.457.457,0,0,1-.455-.455Zm0,4.857a.457.457,0,0,1,.455-.455H9.259a.457.457,0,0,1,.455.455v1.518A.457.457,0,0,1,9.259,17H7.741a.457.457,0,0,1-.455-.455ZM2.429,10.17a.457.457,0,0,1,.455-.455H4.4a.457.457,0,0,1,.455.455v1.518a.457.457,0,0,1-.455.455H2.884a.457.457,0,0,1-.455-.455Zm0,4.857a.457.457,0,0,1,.455-.455H4.4a.457.457,0,0,1,.455.455v1.518A.457.457,0,0,1,4.4,17H2.884a.457.457,0,0,1-.455-.455Zm12.75-12.6H13.357V.607A.609.609,0,0,0,12.75,0H11.536a.609.609,0,0,0-.607.607V2.429H6.071V.607A.609.609,0,0,0,5.464,0H4.25a.609.609,0,0,0-.607.607V2.429H1.821A1.822,1.822,0,0,0,0,4.25V6.071H17V4.25A1.822,1.822,0,0,0,15.179,2.429Z" />
</svg>
