<svg xmlns="http://www.w3.org/2000/svg" xmlns:xlink="http://www.w3.org/1999/xlink" viewBox="0 0 62 62">
  <defs>
    <filter id="a" x="0" y="0" width="62" height="62" filterUnits="userSpaceOnUse">
      <feOffset dy="3" input="SourceAlpha" />
      <feGaussianBlur stdDeviation="5" result="b" />
      <feFlood flood-color="#272727" flood-opacity="0.173" />
      <feComposite operator="in" in2="b" />
      <feComposite in="SourceGraphic" />
    </filter>
  </defs>
  <g transform="translate(-319.5 -597.434)">
    <g transform="matrix(1, 0, 0, 1, 319.5, 597.43)" filter="url(#a)">
      <rect width="32" height="32" rx="10" transform="translate(15 12)" fill="#fafbff" />
    </g>
    <path d="M15.7,4.991,8.384.116a.7.7,0,0,0-.768,0L.3,4.991a.7.7,0,0,0-.3.571v4.875a.7.7,0,0,0,.3.571l7.312,4.876a.7.7,0,0,0,.768,0L15.7,11.009a.7.7,0,0,0,.3-.571V5.562a.7.7,0,0,0-.3-.571ZM8.687,1.973l5.384,3.589-2.4,1.607L8.687,5.178Zm-1.375,0V5.178L4.33,7.169l-2.4-1.607ZM1.375,6.848,3.1,8,1.375,9.151Zm5.937,7.179L1.929,10.437,4.33,8.83l2.982,1.991ZM8,9.625,5.571,8,8,6.375,10.429,8Zm.687,4.4V10.821L11.67,8.83l2.4,1.607Zm5.937-4.875L12.9,8l1.723-1.152Z" transform="translate(342.5 617.434)" fill="#1f1f1f" />
  </g>
</svg>