<svg id="Icon_weather-raindrop" viewBox="0 0 12.516 16.164">
  <path id="Icon_weather-raindrop-2" d="M11.772,18.3a5.929,5.929,0,0,0,.84,3.084,6.387,6.387,0,0,0,2.28,2.28A6.026,6.026,0,0,0,18,24.516a6.143,6.143,0,0,0,3.132-.852,6.36,6.36,0,0,0,2.3-2.28,5.972,5.972,0,0,0,.852-3.084,6.78,6.78,0,0,0-.624-2.568,14.89,14.89,0,0,0-1.512-2.76c-.528-.684-1.152-1.44-1.872-2.256S18.3,8.64,18.012,8.352L16.476,9.9a18.632,18.632,0,0,0-2.148,2.5,18.4,18.4,0,0,0-1.788,3.06A6.664,6.664,0,0,0,11.772,18.3Z" transform="translate(-11.772 -8.352)" fill="#1f1f1f" />
</svg>