<svg xmlns="http://www.w3.org/2000/svg" viewBox="0 0 19.7 19.7" stroke-width="1.9px">
  <g transform="translate(0.85 0.85)">
    <path d="M18,15.75a2.25,2.25,0,1,1-2.25-2.25A2.25,2.25,0,0,1,18,15.75Z" transform="translate(-6.75 -6.75)" fill="none" stroke-linecap="round" stroke-linejoin="round" stroke-width="1.7px" />
    <path d="M16.555,12.955a1.35,1.35,0,0,0,.27,1.489l.049.049a1.637,1.637,0,1,1-2.315,2.315l-.049-.049a1.361,1.361,0,0,0-2.307.965v.139a1.636,1.636,0,1,1-3.273,0V17.79a1.35,1.35,0,0,0-.884-1.235,1.35,1.35,0,0,0-1.489.27l-.049.049a1.637,1.637,0,1,1-2.315-2.315l.049-.049A1.361,1.361,0,0,0,3.275,12.2H3.136a1.636,1.636,0,1,1,0-3.273H3.21a1.35,1.35,0,0,0,1.235-.884,1.35,1.35,0,0,0-.27-1.489l-.049-.049A1.637,1.637,0,1,1,6.442,4.192l.049.049a1.35,1.35,0,0,0,1.489.27h.065a1.35,1.35,0,0,0,.818-1.235V3.136a1.636,1.636,0,0,1,3.273,0V3.21a1.361,1.361,0,0,0,2.307.965l.049-.049a1.637,1.637,0,1,1,2.315,2.315l-.049.049a1.35,1.35,0,0,0-.27,1.489v.065a1.35,1.35,0,0,0,1.235.818h.139a1.636,1.636,0,0,1,0,3.273H17.79a1.35,1.35,0,0,0-1.235.818Z" transform="translate(-1.5 -1.5)" fill="none" stroke-linecap="round" stroke-linejoin="round" stroke-width="1.7px" />
  </g>
</svg>