<svg xmlns="http://www.w3.org/2000/svg" xmlns:xlink="http://www.w3.org/1999/xlink" viewBox="0 0 62 62">
  <defs>
    <filter id="Rectangle_55" x="0" y="0" width="62" height="62" filterUnits="userSpaceOnUse">
      <feOffset dy="3" input="SourceAlpha" />
      <feGaussianBlur stdDeviation="5" result="blur" />
      <feFlood flood-color="#272727" flood-opacity="0.173" />
      <feComposite operator="in" in2="blur" />
      <feComposite in="SourceGraphic" />
    </filter>
  </defs>
  <g transform="translate(-265.5 -597.434)">
    <g transform="matrix(1, 0, 0, 1, 265.5, 597.43)" filter="url(#Rectangle_55)">
      <rect width="32" height="32" rx="10" transform="translate(15 12)" fill="#fafbff" />
    </g>
    <path id="Icon_awesome-linkedin-in" d="M2.556,11.419H.189V3.8H2.556ZM1.371,2.756A1.378,1.378,0,1,1,2.742,1.372,1.383,1.383,0,0,1,1.371,2.756Zm10.045,8.663H9.054V7.708c0-.884-.018-2.019-1.231-2.019C6.592,5.689,6.4,6.65,6.4,7.644v3.775H4.039V3.8h2.27v1.04h.033A2.488,2.488,0,0,1,8.582,3.6c2.4,0,2.836,1.578,2.836,3.627v4.188Z" transform="translate(291.556 619.434)" fill="#1f1f1f" />
  </g>
</svg>
