<svg xmlns="http://www.w3.org/2000/svg" width="16.063" height="16.067" viewBox="0 0 16.063 16.067">
  <path d="M19.237,12.532A2.067,2.067,0,0,1,20.563,10.6a8.193,8.193,0,0,0-.991-2.389,2.1,2.1,0,0,1-.841.18,2.062,2.062,0,0,1-1.887-2.9A8.169,8.169,0,0,0,14.46,4.5a2.065,2.065,0,0,1-3.857,0,8.193,8.193,0,0,0-2.389.991,2.062,2.062,0,0,1-1.887,2.9,2.027,2.027,0,0,1-.841-.18A8.374,8.374,0,0,0,4.5,10.607a2.066,2.066,0,0,1,0,3.857A8.193,8.193,0,0,0,5.5,16.853a2.063,2.063,0,0,1,2.723,2.723,8.241,8.241,0,0,0,2.389.991,2.062,2.062,0,0,1,3.849,0,8.193,8.193,0,0,0,2.389-.991,2.065,2.065,0,0,1,2.723-2.723,8.241,8.241,0,0,0,.991-2.389A2.077,2.077,0,0,1,19.237,12.532Zm-6.668,3.342a3.347,3.347,0,1,1,3.347-3.347A3.346,3.346,0,0,1,12.569,15.874Z" transform="translate(-4.5 -4.5)" fill="#f2f2f2" />
</svg>