<svg xmlns="http://www.w3.org/2000/svg" viewBox="0 0 8.943 8.943">
  <path d="M8.7,2.486l-.805.805a.21.21,0,0,1-.3,0L5.657,1.352a.21.21,0,0,1,0-.3L6.462.25a.84.84,0,0,1,1.186,0L8.7,1.3A.837.837,0,0,1,8.7,2.486ZM4.965,1.747.379,6.334.008,8.456a.42.42,0,0,0,.486.486L2.616,8.57,7.2,3.983a.21.21,0,0,0,0-.3L5.264,1.747a.212.212,0,0,0-.3,0Zm-2.8,4.194a.244.244,0,0,1,0-.346l2.69-2.69a.245.245,0,0,1,.346.346l-2.69,2.69a.244.244,0,0,1-.346,0ZM1.538,7.41h.838v.634l-1.127.2L.707,7.7.9,6.572h.634Z" transform="translate(-0.002 -0.005)" fill="#333" />
</svg>