<svg xmlns="http://www.w3.org/2000/svg" viewBox="0 0 25.678 98.431">
  <g id="Component_36_4" transform="translate(1.013 1.247)">
    <g id="Group_261" transform="translate(0.71)">
      <path id="Path_127" d="M3742.222,1399.316c-13.184-3.967-7.8-15,0-22.491a39.574,39.574,0,0,1,11.9-7.358,37.9,37.9,0,0,1,3.732,13.59C3758.282,1392.681,3754.31,1403.439,3742.222,1399.316Z" transform="translate(-3734.936 -1369.467)" fill="#25dbcd" stroke="#000" stroke-linecap="round" stroke-width="2" />
      <path id="Path_128" d="M3741.5,1406.562a17.219,17.219,0,0,1-1.028-2.5,19.258,19.258,0,0,1-.6-2.873" transform="translate(-3732.193 -1384.404)" fill="none" stroke="#1f1f1f" stroke-linecap="round" stroke-width="2" />
      <path id="Path_129" d="M3750.754,1396.918s4.129-.69,5.318-2.249" transform="translate(-3739.059 -1379.506)" fill="none" stroke="#1f1f1f" stroke-linecap="round" stroke-width="2" />
      <path id="Path_130" d="M3752.876,1390.388s-1.216-3.8-1.081-4.5" transform="translate(-3739.685 -1377.492)" fill="none" stroke="#1f1f1f" stroke-linecap="round" stroke-width="2" />
    </g>
    <path id="Path_126" d="M3753.037,1450.808s8.31-11.69,4.914-23.814-12.787-11.8-13.583-24.855,8.867-34.987,12.533-39.3" transform="translate(-3739.498 -1355.019)" fill="none" stroke="#000" stroke-linecap="round" stroke-width="2" />
  </g>
</svg>