<svg xmlns="http://www.w3.org/2000/svg" xmlns:xlink="http://www.w3.org/1999/xlink" viewBox="0 0 120 118">
  <g transform="translate(30 27)">
    <g transform="matrix(1, 0, 0, 1, -30, -27)">
      <g transform="translate(30 27)" fill="none" stroke="#000" stroke-width="1">
        <rect width="60" height="58" rx="22" stroke="none" />
        <rect x="0.5" y="0.5" width="59" height="57" rx="21.5" fill="none" />
      </g>
    </g>
    <g transform="translate(23.561 17.29)">
      <g transform="translate(19.05) rotate(90)" stroke-linejoin="round">
        <path d="M 16.95424652099609 18.55009269714355 L 5.216695785522461 18.55009269714355 C 4.311115741729736 18.55009269714355 3.500955820083618 18.08142280578613 3.049505949020386 17.29639434814453 C 2.598055839538574 16.51137351989746 2.600445985794067 15.57541370391846 3.055915832519531 14.7927131652832 L 8.92469596862793 4.70737361907959 C 9.377466201782227 3.929283618927002 10.18523597717285 3.464763402938843 11.08547592163086 3.464763402938843 C 11.98571586608887 3.464763402938843 12.79348564147949 3.929283618927002 13.24625587463379 4.70737361907959 L 19.11503601074219 14.7927131652832 C 19.57050514221191 15.57541370391846 19.57289505004883 16.5113639831543 19.12144660949707 17.29639434814453 C 18.66999626159668 18.08142280578613 17.85982513427734 18.55009269714355 16.95424652099609 18.55009269714355 Z" stroke="none" />
        <path d="M 11.08547592163086 3.964754104614258 C 10.36528587341309 3.964754104614258 9.71906566619873 4.336374282836914 9.356845855712891 4.958845138549805 L 3.488065719604492 15.04418468475342 C 3.123695373535156 15.67034435272217 3.121786117553711 16.41911506652832 3.482946395874023 17.04713439941406 C 3.844106674194336 17.6751537322998 4.49223518371582 18.05009460449219 5.216695785522461 18.05009460449219 L 16.95424652099609 18.05009460449219 C 17.67871475219727 18.05009460449219 18.32684516906738 17.6751537322998 18.6880054473877 17.04713439941406 C 19.04916572570801 16.41911506652832 19.04725646972656 15.67034435272217 18.68288612365723 15.04418468475342 L 12.81410598754883 4.958854675292969 C 12.45187568664551 4.336383819580078 11.80565547943115 3.964754104614258 11.08547592163086 3.964754104614258 M 11.08547592163086 2.964759826660156 C 12.09270858764648 2.964759826660156 13.09994125366211 3.46180534362793 13.67841625213623 4.455894470214844 L 19.54719543457031 14.54123497009277 C 20.71100616455078 16.54121398925781 19.2682056427002 19.05009460449219 16.95424652099609 19.05009460449219 L 5.216695785522461 19.05009460449219 C 2.902746200561523 19.05009460449219 1.459945678710938 16.54121398925781 2.623756408691406 14.54123497009277 L 8.492535591125488 4.455894470214844 C 9.071010589599609 3.46180534362793 10.07824325561523 2.964759826660156 11.08547592163086 2.964759826660156 Z" stroke="none" fill="#000" />
      </g>
    </g>
  </g>
</svg>