<svg xmlns="http://www.w3.org/2000/svg" viewBox="0 0 18.045 18.045">
  <g transform="translate(-3.375 -3.375)">
    <g transform="translate(3.375 3.375)">
      <path d="M17.585,27.211a.668.668,0,0,0-.668.668v2a.668.668,0,0,0,1.336,0v-2A.668.668,0,0,0,17.585,27.211Z" transform="translate(-8.563 -12.506)" />
      <path d="M17.585,3.375a.668.668,0,0,0-.668.668v2a.668.668,0,0,0,1.336,0v-2A.668.668,0,0,0,17.585,3.375Z" transform="translate(-8.563 -3.375)" />
      <path d="M6.715,17.585a.668.668,0,0,0-.668-.668h-2a.668.668,0,0,0,0,1.336h2A.668.668,0,0,0,6.715,17.585Z" transform="translate(-3.375 -8.563)" />
      <path d="M29.883,16.917h-2a.668.668,0,0,0,0,1.336h2a.668.668,0,1,0,0-1.336Z" transform="translate(-12.506 -8.563)" />
      <path d="M9.427,24.195a.666.666,0,0,0-.473.2L7.536,25.808a.669.669,0,0,0,.946.946L9.9,25.335a.668.668,0,0,0-.473-1.141Z" transform="translate(-4.894 -11.351)" />
      <path d="M24.863,10.1a.666.666,0,0,0,.473-.2l1.418-1.418a.669.669,0,0,0-.946-.946L24.39,8.954a.668.668,0,0,0,.473,1.141Z" transform="translate(-11.351 -4.894)" />
      <path d="M8.481,7.536a.669.669,0,0,0-.946.946L8.954,9.9A.669.669,0,0,0,9.9,8.954Z" transform="translate(-4.894 -4.894)" />
      <path d="M25.335,24.39a.669.669,0,0,0-.946.946l1.418,1.418a.669.669,0,0,0,.946-.946Z" transform="translate(-11.351 -11.351)" />
    </g>
    <path d="M15.414,11.25a4.164,4.164,0,1,0,4.164,4.164,4.171,4.171,0,0,0-4.164-4.164Z" transform="translate(-3.017 -3.017)" />
  </g>
</svg>