<svg xmlns="http://www.w3.org/2000/svg" width="8.313" height="9.5" viewBox="0 0 8.313 9.5"><path d="M.594,8.609a.891.891,0,0,0,.891.891H6.828a.891.891,0,0,0,.891-.891V2.375H.594Zm5.047-4.75a.3.3,0,0,1,.594,0V8.016a.3.3,0,0,1-.594,0Zm-1.781,0a.3.3,0,0,1,.594,0V8.016a.3.3,0,0,1-.594,0Zm-1.781,0a.3.3,0,0,1,.594,0V8.016a.3.3,0,0,1-.594,0ZM8.016.594H5.789L5.615.247A.445.445,0,0,0,5.216,0H3.095a.44.44,0,0,0-.4.247L2.523.594H.3a.3.3,0,0,0-.3.3v.594a.3.3,0,0,0,.3.3H8.016a.3.3,0,0,0,.3-.3V.891A.3.3,0,0,0,8.016.594Z" transform="translate(0 0)" fill="#e22b2b"/></svg>