<?xml version="1.0" encoding="UTF-8" standalone="no"?><!DOCTYPE svg PUBLIC "-//W3C//DTD SVG 1.1//EN" "http://www.w3.org/Graphics/SVG/1.1/DTD/svg11.dtd"><svg width="100%" height="100%" viewBox="0 0 500 500" version="1.1" xmlns="http://www.w3.org/2000/svg" xmlns:xlink="http://www.w3.org/1999/xlink" xml:space="preserve" xmlns:serif="http://www.serif.com/" style="fill-rule:evenodd;clip-rule:evenodd;stroke-linecap:round;stroke-linejoin:round;"><g><path d="M500,50c0,-27.596 -22.404,-50 -50,-50l-400,0c-27.596,0 -50,22.404 -50,50l0,400c0,27.596 22.404,50 50,50l400,0c27.596,0 50,-22.404 50,-50l0,-400Z" style="fill:#ebebeb;"/><clipPath id="_clip1"><rect x="64.394" y="29.269" width="371.212" height="441.463"/></clipPath><g clip-path="url(#_clip1)"><g id="Group_147"><g id="squares"><rect id="Path_75" x="73.917" y="97.935" width="129.25" height="129.25" style="fill:#e00079;stroke:#e00079;stroke-width:19.05px;"/><path id="Path_76" d="M313.477,38.792l-124.839,33.448l33.454,124.861l124.839,-33.48l-33.454,-124.829Z" style="fill:#e00079;stroke:#e00079;stroke-width:19.05px;"/><path id="Path_77" d="M250.933,237.283l-129.219,-0l0,129.25l129.208,-0l0.011,-129.25Z" style="fill:#e00079;stroke:#e00079;stroke-width:19.05px;"/><path id="Path_78" d="M212.265,427.733l124.845,33.48l33.454,-124.844l-124.845,-33.454l-33.454,124.818Z" style="fill:#e00079;stroke:#e00079;stroke-width:19.05px;"/><rect id="Path_79" x="296.838" y="176.779" width="129.261" height="129.271" style="fill:#e00079;stroke:#e00079;stroke-width:19.05px;"/></g><g id="b"><text x="106.675px" y="193.296px" style="font-family:'Helvetica-Bold', 'Helvetica';font-weight:700;font-size:90.344px;fill:#fff;">b</text></g><g id="l"><g transform="matrix(0.965885,-0.258971,0.258971,0.965885,-28.3345,72.3774)"><text x="260.546px" y="143.734px" style="font-family:'Helvetica-Bold', 'Helvetica';font-weight:700;font-size:79.715px;fill:#fff;">l</text></g></g><g id="s"><g transform="matrix(1,0.00015708,-0.00015708,1,0.0500355,-0.0254141)"><text x="161.816px" y="318.523px" style="font-family:'Helvetica-Bold', 'Helvetica';font-weight:700;font-size:85.03px;fill:#fff;">s</text></g></g><g id="c"><g transform="matrix(0.965886,0.258969,-0.258969,0.965886,112.139,-52.409)"><text x="254.993px" y="399.429px" style="font-family:'Helvetica-Bold', 'Helvetica';font-weight:700;font-size:79.725px;fill:#fff;">c</text></g></g><g id="o"><text x="331.185px" y="263.259px" style="font-family:'Helvetica-Bold', 'Helvetica';font-weight:700;font-size:90.344px;fill:#fff;">o</text></g></g></g></g></svg>