<svg xmlns="http://www.w3.org/2000/svg" width="125.005" height="125.005" viewBox="0 0 125.005 125.005"><path d="M46.752,63.94a7.813,7.813,0,1,0,7.813,7.813A7.816,7.816,0,0,0,46.752,63.94Zm37.5,0a7.813,7.813,0,1,0,7.813,7.813A7.816,7.816,0,0,0,84.253,63.94ZM65.5,3a62.5,62.5,0,1,0,62.5,62.5A62.525,62.525,0,0,0,65.5,3Zm0,112.5a50.069,50.069,0,0,1-50-50,50.676,50.676,0,0,1,.313-5.375A62.888,62.888,0,0,0,48.377,26.564,62.34,62.34,0,0,0,99.379,53a61.005,61.005,0,0,0,14.063-1.625A49.926,49.926,0,0,1,65.5,115.5Z" transform="translate(-3 -3)"/></svg>